<svg xmlns="http://www.w3.org/2000/svg" width="840" height="32" viewBox="0 0 840 32" role="img" aria-label="Language mix across 17 projects">
<style>
    .neutral { fill: #737a87; }
    .neutral-track { fill: #8b929e; }
    .l0 { fill: #3178c6; }
    .l1 { fill: #cb171e; }
    .l2 { fill: #8a8a8a; }
    .l3 { fill: #00a1c9; }
    .l4 { fill: #a4930e; }
    .l5 { fill: #3572a5; }
    .l6 { fill: #178600; }
    .l7 { fill: #0b56db; }
    .l8 { fill: #626262; }
    .l9 { fill: #c6538c; }
    .l10 { fill: #7251a5; }
    .l11 { fill: #3aa576; }
    .l12 { fill: #3da1a2; }
    .l13 { fill: #515f98; }
    .l14 { fill: #445ab5; }
    .l15 { fill: #e34c26; }
    .l16 { fill: #42a0ad; }
    .l17 { fill: #54a81e; }
    .l18 { fill: #b19043; }
    .l19 { fill: #6b4dbc; }
    .l20 { fill: #3fa674; }
    .l21 { fill: #4ba63f; }
    .l22 { fill: #a04422; }
    .l23 { fill: #3da295; }
    .l24 { fill: #8243b1; }
    .l25 { fill: #3da298; }
    .l26 { fill: #0063b1; }
    .l27 { fill: #427819; }
    .l28 { fill: #4a6670; }
    .l29 { fill: #cf7f00; }
    .l30 { fill: #6ba23d; }
    .l31 { fill: #949494; }
    .l32 { fill: #40a1aa; }
    .l33 { fill: #b14387; }
    .l34 { fill: #7c98a7; }
    .l35 { fill: #6151bd; }
    .l36 { fill: #0298c3; }
    .l37 { fill: #3fa667; }
    .l38 { fill: #3fa655; }
    .l39 { fill: #b17543; }
    .l40 { fill: #3fa684; }
    .l41 { fill: #4398b1; }
</style>
<rect class="neutral-track" fill="#8b929e" x="2" y="2" width="836" height="8" rx="4.0"/>
<clipPath id="barclip"><rect x="2" y="2" width="836" height="8" rx="4.0"/></clipPath>
<g id="bar" clip-path="url(#barclip)">
<rect class="l0" x="2.00" y="2" width="249.03" height="8" fill="#3178c6"/>
<rect class="l1" x="251.03" y="2" width="132.47" height="8" fill="#cb171e"/>
<rect class="l2" x="383.50" y="2" width="118.43" height="8" fill="#8a8a8a"/>
<rect class="l3" x="501.93" y="2" width="77.57" height="8" fill="#00a1c9"/>
<rect class="l4" x="579.50" y="2" width="44.56" height="8" fill="#a4930e"/>
<rect class="l5" x="624.06" y="2" width="43.88" height="8" fill="#3572a5"/>
<rect class="l6" x="667.94" y="2" width="25.63" height="8" fill="#178600"/>
<rect class="l7" x="693.57" y="2" width="24.75" height="8" fill="#0b56db"/>
<rect class="l8" x="718.32" y="2" width="24.11" height="8" fill="#626262"/>
<rect class="l9" x="742.42" y="2" width="16.60" height="8" fill="#c6538c"/>
<rect class="l10" x="759.02" y="2" width="13.02" height="8" fill="#7251a5"/>
<rect class="l11" x="772.04" y="2" width="10.69" height="8" fill="#3aa576"/>
<rect class="l12" x="782.72" y="2" width="9.09" height="8" fill="#3da1a2"/>
<rect class="l13" x="791.81" y="2" width="7.57" height="8" fill="#515f98"/>
<rect class="l14" x="799.38" y="2" width="4.98" height="8" fill="#445ab5"/>
<rect class="l15" x="804.36" y="2" width="4.64" height="8" fill="#e34c26"/>
<rect class="l16" x="809.01" y="2" width="4.33" height="8" fill="#42a0ad"/>
<rect class="l17" x="813.34" y="2" width="4.08" height="8" fill="#54a81e"/>
<rect class="l18" x="817.42" y="2" width="2.75" height="8" fill="#b19043"/>
<rect class="l19" x="820.17" y="2" width="2.57" height="8" fill="#6b4dbc"/>
<rect class="l20" x="822.74" y="2" width="1.81" height="8" fill="#3fa674"/>
<rect class="l21" x="824.55" y="2" width="1.40" height="8" fill="#4ba63f"/>
<rect class="l22" x="825.95" y="2" width="1.32" height="8" fill="#a04422"/>
<rect class="l23" x="827.28" y="2" width="1.26" height="8" fill="#3da295"/>
<rect class="l24" x="828.53" y="2" width="1.23" height="8" fill="#8243b1"/>
<rect class="l25" x="829.77" y="2" width="1.13" height="8" fill="#3da298"/>
<rect class="l26" x="830.90" y="2" width="0.91" height="8" fill="#0063b1"/>
<rect class="l27" x="831.81" y="2" width="0.90" height="8" fill="#427819"/>
<rect class="l28" x="832.71" y="2" width="0.84" height="8" fill="#4a6670"/>
<rect class="l29" x="833.54" y="2" width="0.82" height="8" fill="#cf7f00"/>
<rect class="l30" x="834.36" y="2" width="0.81" height="8" fill="#6ba23d"/>
<rect class="l31" x="835.17" y="2" width="0.78" height="8" fill="#949494"/>
<rect class="l32" x="835.94" y="2" width="0.64" height="8" fill="#40a1aa"/>
</g>
<text x="2" y="28" class="neutral" fill="#737a87" font-family="-apple-system,BlinkMacSystemFont,'Segoe UI',Roboto,Helvetica,Arial,sans-serif" font-size="11" font-weight="400" text-anchor="start">TypeScript 30%  ·  YAML 16%  ·  JSON 14%  ·  Go 9%  ·  JavaScript 5%  ·  Python 5%  ·  C# 3%  ·  Markdown 3%  ·  C 3%  ·  SCSS 2%  ·  other 9%</text>
</svg>
