<svg xmlns="http://www.w3.org/2000/svg" width="480" height="242" viewBox="0 0 480 242" role="img" aria-label="Lines of code by project: 602 818 in total">
<style>
    .bg { fill: #ffffff; stroke: #e3e6ea; }
    .title { fill: #6b7280; }
    .figure { fill: #1c1e21; }
    .label { fill: #1c1e21; }
    .muted { fill: #6b7280; }
    .track { fill: #eceff3; }
    @media (prefers-color-scheme: dark) {
      .bg { fill: #0f1115; stroke: #262b33; }
      .title { fill: #9aa3af; }
      .figure { fill: #e6e8eb; }
      .label { fill: #e6e8eb; }
      .muted { fill: #9aa3af; }
      .track { fill: #22262e; }
    }
    .l0 { fill: #4743b1; }
    .l1 { fill: #b14e43; }
    .l2 { fill: #4368b1; }
    .l3 { fill: #3fa655; }
    .l4 { fill: #70a23d; }
    .l5 { fill: #4375b1; }
    .l6 { fill: #889b3b; }
    .l7 { fill: #b14356; }
    .l8 { fill: #a6953f; }
    .l9 { fill: #b1439f; }
    .l10 { fill: #7743b1; }
    .l11 { fill: #b1438f; }
    .l12 { fill: #5ba63f; }
    .l13 { fill: #409faa; }
    .l14 { fill: #51a63f; }
    .l15 { fill: #3da298; }
    .l16 { fill: #b18743; }
    @media (prefers-color-scheme: dark) {
      .l0 { fill: #5854be; }
      .l1 { fill: #b14e43; }
      .l2 { fill: #4368b1; }
      .l3 { fill: #43b15b; }
      .l4 { fill: #7ab143; }
      .l5 { fill: #4375b1; }
      .l6 { fill: #9bb143; }
      .l7 { fill: #b14356; }
      .l8 { fill: #b19f43; }
      .l9 { fill: #b1439f; }
      .l10 { fill: #7c46b8; }
      .l11 { fill: #b1438f; }
      .l12 { fill: #61b143; }
      .l13 { fill: #43a6b1; }
      .l14 { fill: #56b143; }
      .l15 { fill: #43b1a6; }
      .l16 { fill: #b18743; }
    }
</style>
<rect class="bg" fill="#ffffff" stroke="#e3e6ea" x="0.5" y="0.5" width="479" height="241" rx="10"/>
<text x="20" y="34" class="title" fill="#6b7280" font-family="-apple-system,BlinkMacSystemFont,'Segoe UI',Roboto,Helvetica,Arial,sans-serif" font-size="11" font-weight="600" text-anchor="start">LINES OF CODE</text>
<path class="l0" d="M82.00 48.00A62 62 0 0 1 144.00 110.57L126.00 110.41A44 44 0 0 0 82.00 66.00Z" fill="#4743b1"/>
<path class="l1" d="M144.00 110.57A62 62 0 0 1 118.05 160.44L107.59 145.80A44 44 0 0 0 126.00 110.41Z" fill="#b14e43"/>
<path class="l2" d="M118.05 160.44A62 62 0 0 1 64.64 169.52L69.68 152.24A44 44 0 0 0 107.59 145.80Z" fill="#4368b1"/>
<path class="l3" d="M64.64 169.52A62 62 0 0 1 29.66 143.24L44.86 133.59A44 44 0 0 0 69.68 152.24Z" fill="#3fa655"/>
<path class="l4" d="M29.66 143.24A62 62 0 0 1 21.50 123.54L39.06 119.61A44 44 0 0 0 44.86 133.59Z" fill="#70a23d"/>
<path class="l5" d="M21.50 123.54A62 62 0 0 1 20.28 104.14L38.20 105.84A44 44 0 0 0 39.06 119.61Z" fill="#4375b1"/>
<path class="l6" d="M20.28 104.14A62 62 0 0 1 23.41 89.74L40.42 95.62A44 44 0 0 0 38.20 105.84Z" fill="#889b3b"/>
<path class="l7" d="M23.41 89.74A62 62 0 0 1 29.08 77.70L44.44 87.08A44 44 0 0 0 40.42 95.62Z" fill="#b14356"/>
<path class="l8" d="M29.08 77.70A62 62 0 0 1 37.08 67.26L50.12 79.67A44 44 0 0 0 44.44 87.08Z" fill="#a6953f"/>
<path class="l9" d="M37.08 67.26A62 62 0 0 1 46.30 59.31L56.66 74.03A44 44 0 0 0 50.12 79.67Z" fill="#b1439f"/>
<path class="l10" d="M46.30 59.31A62 62 0 0 1 56.76 53.37L64.09 69.81A44 44 0 0 0 56.66 74.03Z" fill="#7743b1"/>
<path class="l11" d="M56.76 53.37A62 62 0 0 1 64.49 50.52L69.58 67.79A44 44 0 0 0 64.09 69.81Z" fill="#b1438f"/>
<path class="l12" d="M64.49 50.52A62 62 0 0 1 70.42 49.09L73.78 66.77A44 44 0 0 0 69.58 67.79Z" fill="#5ba63f"/>
<path class="l13" d="M70.42 49.09A62 62 0 0 1 75.47 48.35L77.36 66.24A44 44 0 0 0 73.78 66.77Z" fill="#409faa"/>
<path class="l14" d="M75.47 48.35A62 62 0 0 1 78.67 48.09L79.63 66.06A44 44 0 0 0 77.36 66.24Z" fill="#51a63f"/>
<path class="l15" d="M78.67 48.09A62 62 0 0 1 81.79 48.00L81.85 66.00A44 44 0 0 0 79.63 66.06Z" fill="#3da298"/>
<text x="82" y="112" class="figure" fill="#1c1e21" font-family="-apple-system,BlinkMacSystemFont,'Segoe UI',Roboto,Helvetica,Arial,sans-serif" font-size="20" font-weight="700" text-anchor="middle">603k</text>
<text x="82" y="128" class="muted" fill="#6b7280" font-family="-apple-system,BlinkMacSystemFont,'Segoe UI',Roboto,Helvetica,Arial,sans-serif" font-size="10" font-weight="400" text-anchor="middle">lines</text>
<circle class="l0" cx="170" cy="58" r="4" fill="#4743b1"/>
<text x="182" y="62" class="label" fill="#1c1e21" font-family="-apple-system,BlinkMacSystemFont,'Segoe UI',Roboto,Helvetica,Arial,sans-serif" font-size="11" font-weight="500" text-anchor="start">UNDISCLOSED</text>
<text x="460" y="62" class="muted" fill="#6b7280" font-family="-apple-system,BlinkMacSystemFont,'Segoe UI',Roboto,Helvetica,Arial,sans-serif" font-size="11" font-weight="400" text-anchor="end">25.1%</text>
<circle class="l1" cx="170" cy="78" r="4" fill="#b14e43"/>
<text x="182" y="82" class="label" fill="#1c1e21" font-family="-apple-system,BlinkMacSystemFont,'Segoe UI',Roboto,Helvetica,Arial,sans-serif" font-size="11" font-weight="500" text-anchor="start">DUD</text>
<text x="460" y="82" class="muted" fill="#6b7280" font-family="-apple-system,BlinkMacSystemFont,'Segoe UI',Roboto,Helvetica,Arial,sans-serif" font-size="11" font-weight="400" text-anchor="end">15.0%</text>
<circle class="l2" cx="170" cy="98" r="4" fill="#4368b1"/>
<text x="182" y="102" class="label" fill="#1c1e21" font-family="-apple-system,BlinkMacSystemFont,'Segoe UI',Roboto,Helvetica,Arial,sans-serif" font-size="11" font-weight="500" text-anchor="start">RetroFlops</text>
<text x="460" y="102" class="muted" fill="#6b7280" font-family="-apple-system,BlinkMacSystemFont,'Segoe UI',Roboto,Helvetica,Arial,sans-serif" font-size="11" font-weight="400" text-anchor="end">14.4%</text>
<circle class="l3" cx="170" cy="118" r="4" fill="#3fa655"/>
<text x="182" y="122" class="label" fill="#1c1e21" font-family="-apple-system,BlinkMacSystemFont,'Segoe UI',Roboto,Helvetica,Arial,sans-serif" font-size="11" font-weight="500" text-anchor="start">Magic Link SSO</text>
<text x="460" y="122" class="muted" fill="#6b7280" font-family="-apple-system,BlinkMacSystemFont,'Segoe UI',Roboto,Helvetica,Arial,sans-serif" font-size="11" font-weight="400" text-anchor="end">11.5%</text>
<circle class="l4" cx="170" cy="138" r="4" fill="#70a23d"/>
<text x="182" y="142" class="label" fill="#1c1e21" font-family="-apple-system,BlinkMacSystemFont,'Segoe UI',Roboto,Helvetica,Arial,sans-serif" font-size="11" font-weight="500" text-anchor="start">gLifestream</text>
<text x="460" y="142" class="muted" fill="#6b7280" font-family="-apple-system,BlinkMacSystemFont,'Segoe UI',Roboto,Helvetica,Arial,sans-serif" font-size="11" font-weight="400" text-anchor="end">5.5%</text>
<circle class="l5" cx="170" cy="158" r="4" fill="#4375b1"/>
<text x="182" y="162" class="label" fill="#1c1e21" font-family="-apple-system,BlinkMacSystemFont,'Segoe UI',Roboto,Helvetica,Arial,sans-serif" font-size="11" font-weight="500" text-anchor="start">Time Tracker</text>
<text x="460" y="162" class="muted" fill="#6b7280" font-family="-apple-system,BlinkMacSystemFont,'Segoe UI',Roboto,Helvetica,Arial,sans-serif" font-size="11" font-weight="400" text-anchor="end">5.0%</text>
<circle class="l6" cx="170" cy="178" r="4" fill="#889b3b"/>
<text x="182" y="182" class="label" fill="#1c1e21" font-family="-apple-system,BlinkMacSystemFont,'Segoe UI',Roboto,Helvetica,Arial,sans-serif" font-size="11" font-weight="500" text-anchor="start">Cheetah News</text>
<text x="460" y="182" class="muted" fill="#6b7280" font-family="-apple-system,BlinkMacSystemFont,'Segoe UI',Roboto,Helvetica,Arial,sans-serif" font-size="11" font-weight="400" text-anchor="end">3.8%</text>
<circle class="l7" cx="170" cy="198" r="4" fill="#b14356"/>
<text x="182" y="202" class="label" fill="#1c1e21" font-family="-apple-system,BlinkMacSystemFont,'Segoe UI',Roboto,Helvetica,Arial,sans-serif" font-size="11" font-weight="500" text-anchor="start">On This Day</text>
<text x="460" y="202" class="muted" fill="#6b7280" font-family="-apple-system,BlinkMacSystemFont,'Segoe UI',Roboto,Helvetica,Arial,sans-serif" font-size="11" font-weight="400" text-anchor="end">3.4%</text>
<text x="20" y="228" class="muted" fill="#6b7280" font-family="-apple-system,BlinkMacSystemFont,'Segoe UI',Roboto,Helvetica,Arial,sans-serif" font-size="10" font-weight="400" text-anchor="start">clocwork · cloc · 2026-09-10</text>
</svg>
